HIERARCHY
ROOT pelvis
{
  OFFSET 0 100 0
  CHANNELS 6 Xposition Yposition Zposition Zrotation Xrotation Yrotation
  JOINT pelvis_right_femur
  {
    OFFSET -10.78128 -3.44521 -0.5502486
    CHANNELS 3 Zrotation Xrotation Yrotation
    JOINT right_femur_tibia
    {
      OFFSET -0.8047443 -44.0398 -0.1307829
      CHANNELS 3 Zrotation Xrotation Yrotation
      JOINT right_tibia_foot
      {
        OFFSET 3.006224 -47.83518 -5
        CHANNELS 3 Zrotation Xrotation Yrotation
        End Site
        {
          OFFSET 0 -5 15
        }
      }
    }
  }
  JOINT pelvis_left_femur
  {
    OFFSET 10.78128 -3.44521 -0.5502486
    CHANNELS 3 Zrotation Xrotation Yrotation
    JOINT left_femur_tibia
    {
      OFFSET 0.8047443 -44.0398 -0.1307829
      CHANNELS 3 Zrotation Xrotation Yrotation
      JOINT left_tibia_foot
      {
        OFFSET -4.370144 -48.10324 -4.275266
        CHANNELS 3 Zrotation Xrotation Yrotation
        End Site
        {
          OFFSET 0 -5 15
        }
      }
    }
  }
  JOINT pelvis_spine1
  {
    OFFSET 0 6.468898 -3.129235
    CHANNELS 3 Zrotation Xrotation Yrotation
    JOINT spine1
    {
      OFFSET 0 23.15396 4.99043
      CHANNELS 3 Zrotation Xrotation Yrotation
      JOINT spine2
      {
        OFFSET 0 20.79997 -5.064912
        CHANNELS 3 Zrotation Xrotation Yrotation
        JOINT neck
        {
          OFFSET 0 14.38658 9.616178
          CHANNELS 3 Zrotation Xrotation Yrotation
          End Site
          {
            OFFSET 0 20 0
          }
        }
      }
      JOINT right_manubrium
      {
        OFFSET -5.722621 16.35077 3.967754
        CHANNELS 3 Zrotation Xrotation Yrotation
        JOINT right_clavicle
        {
          OFFSET -13.16364 1.694482 -4.693211
          CHANNELS 3 Zrotation Xrotation Yrotation
          JOINT right_humerus
          {
            OFFSET -28.5034 -0.3100689 -2.792744
            CHANNELS 3 Zrotation Xrotation Yrotation
            JOINT right_radius
            {
              OFFSET -25.15693 0.02248979 -1.271978
              CHANNELS 3 Zrotation Xrotation Yrotation
              End Site
              {
                OFFSET -15 0 0
              }
            }
          }
        }
      }
      JOINT left_manubrium
      {
        OFFSET 5.722621 16.35077 3.967754
        CHANNELS 3 Zrotation Xrotation Yrotation
        JOINT left_clavicle
        {
          OFFSET 13.16364 1.694482 -4.693211
          CHANNELS 3 Zrotation Xrotation Yrotation
          JOINT left_humerus
          {
            OFFSET 29.39168 -1.063119 -2.237045
            CHANNELS 3 Zrotation Xrotation Yrotation
            JOINT left_radius
            {
              OFFSET 24.59957 -0.9528479 0.9047498
              CHANNELS 3 Zrotation Xrotation Yrotation
              End Site
              {
                OFFSET 15 -0 -0
              }
            }
          }
        }
      }
    }
  }
}
MOTION
Frames: 17
Frame Time: 0.0416666666667
23.64722 101.9688 288.7274 2.273556 -7.674457 0.004143282 0.223371 14.66921 5.817833 -0 42.70771 -0 7.204512 -11.72209 -0.8318318 -4.141324 -19.44672 -7.404931 -0 25.95204 -0 -5.868834 -8.064926 15.56809 -2.260759 0.3965058 8.19677 -1.987601 9.360432 -2.400389 2.270589 20.04025 3.820283 0.7602917 -17.75228 6.772788 1.343537 -20.28927 10.82084 83.07047 18.22033 -9.921546 -0 0 25.32797 -27.0826 13.1929 12.35466 4.713695 -13.15991 -3.006975 -92.63393 21.83809 26.41487 0 0 -7.41602 0.1269187 2.150578 14.91483
24.6535 102.8194 295.859 2.443364 -8.422557 0.9635694 0.1189634 11.04668 4.832722 -0 51.43985 -0 6.729721 -10.63001 -3.351617 -5.205753 -14.5671 -8.416572 -0 26.09196 -0 -5.109159 -9.680944 15.25894 -2.282004 0.5012402 7.533458 -1.878222 9.446818 -2.554509 2.244085 20.71043 3.856397 0.5529368 -17.31194 6.9911 1.886008 -19.59302 10.84012 83.99636 18.29114 -10.91599 -0 0 23.17275 -26.08663 13.08171 11.2608 4.480296 -13.93425 -3.040712 -91.16922 22.39362 23.76661 0 0 -8.756986 0.3227475 2.212131 14.73852
25.49364 104.2349 302.517 2.366671 -9.440191 1.984291 0.3064386 4.809736 4.275289 -0 56.48027 -0 6.253872 -10.16234 -5.485934 -5.673219 -8.888392 -8.893982 -0 25.16174 -0 -4.442455 -11.1927 15.03846 -2.095823 1.088871 6.414897 -1.695166 9.581389 -2.974809 2.119951 21.33545 4.077494 0.3003609 -16.7981 7.363039 2.377129 -18.83262 10.95946 85.24715 18.48198 -12.02236 -0 0 21.22257 -24.99426 12.99147 10.21253 4.160084 -14.98604 -3.372289 -89.4555 22.98819 20.36651 0 0 -10.48483 0.5327876 2.344464 14.44499
26.32797 105.6418 308.6516 2.254975 -9.319612 2.779027 0.8342381 -1.118178 3.485798 -0 57.45045 -0 6.505603 -8.633515 -7.330014 -5.772999 -3.36956 -8.978215 -0 22.68783 -0 -3.966901 -12.4954 14.59822 -1.88367 1.103134 5.036676 -1.529312 9.411752 -3.715841 1.975296 21.9131 4.433914 0.05240641 -16.18447 7.884819 2.395343 -18.08078 10.8655 86.71985 18.6667 -13.16316 -0 0 19.9931 -24.00249 12.85253 9.47808 4.062454 -15.96959 -3.820143 -87.71789 23.52035 16.63909 0 0 -12.58141 0.7759724 2.558397 14.00579
27.14129 106.6766 314.5006 2.256115 -9.528675 4.162939 1.301856 -8.010747 3.795282 -0 54.62833 -0 6.113572 -7.758187 -8.645062 -5.742939 1.951997 -9.188546 -0 20.0606 -0 -3.667503 -13.63206 13.96078 -1.810742 1.253143 3.687062 -1.267928 9.268154 -4.704625 2.099978 22.51974 4.635505 -0.03430942 -15.45977 8.41163 1.942175 -17.22169 10.37987 87.91042 18.77443 -14.43187 -0 0 19.06338 -23.17981 12.65617 8.894953 4.185796 -17.06401 -4.231773 -85.93527 23.99679 12.67313 0 0 -15.02067 1.031564 2.841149 13.42921
27.86078 106.9727 320.2991 2.163432 -9.279317 5.59838 1.237383 -14.17964 4.071862 -0 47.34767 -0 5.236214 -7.539906 -9.345102 -5.279601 6.595744 -9.594498 -0 17.35102 -0 -3.43605 -14.98871 13.1046 -1.820945 1.27814 2.415785 -0.8382838 8.865823 -5.95262 2.364785 22.89804 4.70002 -0.03487004 -14.92619 8.854523 1.295575 -16.41008 9.67705 88.75082 18.78256 -15.73384 -0 0 18.39182 -22.54997 12.39582 8.417645 4.500256 -18.13536 -4.608039 -84.16793 24.42164 8.749196 0 0 -17.71597 1.291058 3.228474 12.72386
28.52448 106.5539 326.2102 2.145046 -8.77853 6.782259 0.3588164 -19.21887 3.824781 -0 37.71748 -0 4.369938 -7.402138 -10.27537 -4.841245 10.66798 -9.809192 -0 15.48405 -0 -3.198945 -16.57422 12.3315 -1.95773 1.160796 1.548058 -0.4230743 8.198204 -6.994402 2.667587 23.12421 4.646264 -0.01174522 -14.65255 9.165488 0.715125 -15.90627 9.061531 89.11104 18.74892 -16.75132 -0 0 17.86958 -22.06847 12.08622 7.96847 4.909658 -19.19653 -4.897371 -82.42876 24.79992 5.080847 0 0 -20.53849 1.601932 3.754824 11.85862
29.20892 105.4215 332.3257 2.224367 -7.960595 7.513435 -0.6069724 -22.22437 3.096424 -0 27.29925 -0 3.295162 -8.269235 -10.82487 -4.734009 14.15119 -9.711464 -0 14.59442 -0 -2.968384 -18.21941 11.72143 -2.203738 0.9455239 1.065071 -0.07260933 7.544161 -7.761908 2.945659 22.97938 4.503927 -0.003374566 -14.74266 9.321573 0.1711108 -14.91165 8.535001 89.58954 18.61146 -18.12105 -0 0 16.65848 -21.43354 11.71207 7.038961 5.562121 -20.361 -5.002104 -80.70637 25.11386 1.770751 0 0 -23.41987 2.000693 4.386729 10.83925
29.72837 103.9775 338.073 2.448846 -6.989806 7.141534 -0.436131 -23.81734 1.15805 -0 17.34757 -0 2.070899 -9.721953 -11.56915 -5.123456 16.57143 -9.294054 -0 15.11819 -0 -2.832099 -19.49398 11.3404 -2.400045 1.045473 1.331093 0.03757317 7.152197 -7.671323 3.135745 22.82256 4.211967 -0.02486022 -14.95996 9.205636 -0.02920754 -13.85338 8.377182 90.11153 18.42642 -19.35425 -0 0 14.83302 -20.48859 11.3022 5.571496 6.027683 -21.46546 -4.709252 -79.13707 25.34133 -1.23358 0 0 -25.97261 2.426828 5.051237 9.792938
30.24975 102.6588 344.4305 2.342572 -6.668207 7.387184 0.2914527 -24.74855 0.4007784 -0 11.91122 -0 0.8602199 -11.26389 -11.86189 -4.964771 18.93043 -8.856533 -0 17.40627 -0 -2.918764 -19.79114 11.14708 -2.142243 0.8304616 1.403682 0.08554622 6.606961 -7.46585 3.477468 22.64152 3.961672 0.02198576 -15.4232 9.273403 0.03716024 -12.89012 8.417932 90.50474 18.28681 -20.32006 -0 0 12.79901 -19.46496 10.92763 3.98262 5.935034 -22.41729 -4.444545 -78.17119 25.59339 -3.144584 0 0 -27.68679 2.783435 5.711126 8.876023
30.41025 101.8698 351.0948 2.134327 -6.550567 8.155397 1.50925 -23.63243 0.679331 -0 12.43016 -0 -0.03856039 -11.75678 -12.10015 -4.126819 20.4713 -8.620113 -0 21.55946 -0 -3.266335 -18.64631 11.20347 -1.870004 0.5479904 1.218881 0.2609213 6.581663 -7.306586 3.725119 22.77558 3.56833 0.04936122 -15.7906 9.067957 0.3532065 -12.27083 8.499495 90.96175 18.13893 -20.77849 -0 0 11.00158 -18.40355 10.58075 2.408542 5.883342 -22.51694 -4.237586 -77.66161 25.90972 -4.175984 0 0 -28.56418 3.027986 6.326375 8.210793
30.56146 101.4206 358.7245 1.646703 -7.013893 9.026892 3.096242 -21.53313 1.835675 -0 15.93722 -0 -0.6073065 -11.37627 -11.99451 -2.954852 21.31384 -8.632553 -0 28.27068 -0 -3.731981 -15.94213 11.84014 -1.367129 -0.2393231 0.8163857 0.4573212 6.672842 -7.350137 4.060202 22.91267 2.981313 0.1442842 -16.22252 8.661075 0.510362 -11.73649 8.479976 91.36639 17.95676 -20.93002 -0 0 9.54621 -17.36866 10.23437 0.8885673 5.82375 -21.72981 -3.967834 -78.18187 26.47324 -3.588278 0 0 -28.30694 3.065217 6.874154 7.932924
30.85089 101.8144 366.5108 1.3353 -8.200649 8.971405 4.075224 -17.9262 2.799359 -0 19.26002 -0 -1.320382 -11.46533 -11.90712 -1.46883 19.66431 -8.649712 -0 37.17664 -0 -3.803575 -12.92803 13.63027 -0.7213746 -0.3697435 0.9773188 0.5631066 7.336725 -6.943572 4.156139 23.51793 2.745909 0.1649523 -16.39799 8.481532 0.702233 -11.41 8.512927 91.50261 17.77582 -20.71599 -0 0 8.456832 -16.45002 9.864656 -0.5239982 5.496012 -20.78789 -3.690424 -79.43327 27.17668 -1.930253 0 0 -26.83335 2.862271 7.371674 8.06923
31.01492 102.7092 374.0716 0.9132398 -10.17061 8.432321 5.388514 -13.57475 3.73861 -0 21.56652 -0 -2.230039 -12.41687 -11.56014 -1.027721 16.23698 -8.614021 -0 47.21816 -0 -3.835699 -9.530323 15.43154 -0.05799317 0.1982007 1.540241 0.6746113 8.229298 -6.32874 4.290696 24.0856 2.425787 0.2192296 -16.63525 8.222684 0.9014125 -11.27713 8.855215 91.12163 17.6871 -20.14488 -0 0 7.525929 -15.72034 9.488079 -1.881597 4.940396 -19.88099 -3.570294 -81.13896 27.93161 0.4599627 0 0 -24.20583 2.40271 7.812554 8.634508
31.25929 103.8389 380.8297 0.8496293 -11.15054 8.156464 6.126854 -8.216732 3.942335 -0 21.65564 -0 -3.024374 -13.69547 -11.17248 -1.591199 11.58016 -7.757237 -0 55.55594 -0 -4.027267 -6.475064 17.24852 0.190257 0.824341 2.349147 0.5918883 8.514492 -5.684113 4.579865 24.68644 1.886361 0.3570403 -16.74788 7.809054 1.364077 -12.11886 9.380482 90.67548 17.528 -18.41699 -0 0 8.01216 -15.31685 9.104919 -2.589385 4.219253 -19.12769 -3.65911 -83.19362 28.65862 3.286592 0 0 -20.79133 1.706459 8.190779 9.544395
31.50073 105.3195 387.1396 1.562959 -12.13688 7.81463 5.872817 -2.234518 3.677131 -0 20.04515 -0 -3.53636 -14.7056 -10.5225 -2.054638 4.758342 -7.648418 -0 60.46854 -0 -3.562272 -4.601657 18.59586 -0.1536225 1.675883 3.48557 0.1541966 8.525545 -4.816406 4.844925 24.84468 1.602116 0.4635097 -17.19368 7.710991 1.463755 -12.76162 9.940032 90.19008 17.31503 -16.68729 -0 0 8.617762 -15.09506 8.740431 -3.247639 3.688543 -18.38965 -3.928543 -85.41252 29.23419 6.545544 0 0 -16.95832 0.8580119 8.493573 10.66945
31.73023 106.7235 392.6771 2.136847 -12.23472 7.075131 5.281473 3.031223 3.124637 -0 17.17246 -0 -3.81886 -15.38073 -9.538601 -2.721047 -1.802574 -7.579863 -0 60.21745 -0 -2.882142 -3.795154 19.18344 -0.5831894 2.371061 4.478376 -0.3583357 8.726588 -3.929511 4.939686 24.8988 1.421946 0.4847104 -17.63314 7.594203 1.167898 -13.09871 10.35249 89.86946 17.02943 -15.15259 -0 0 9.240415 -15.01964 8.415432 -3.822374 3.631035 -17.74867 -4.022682 -87.71549 29.53885 9.996107 0 0 -13.37895 -0.01211445 8.73086 11.77013
